<svg aria-hidden="true" style="position: absolute; width: 0; height: 0; overflow: hidden;" version="1.1" xmlns="http://www.w3.org/2000/svg" xmlns:xlink="http://www.w3.org/1999/xlink">
<defs>
<symbol id="icon-logo" viewBox="0 0 32 32">
<path fill="#FEFAF8" d="M7.226 7.695c1.639-0.413 2.832 0.419 3.118 1.553 0.255 1.011-0.332 2.291-1.33 2.969 1.95-0.361 3.195 0.681 3.529 2.005 0.359 1.431-0.331 3.182-2.289 3.804l-4.623 1.015c-0.066-0.41 0.998-0.752 0.858-1.383l-1.851-8.012c-0.141-0.633-1.484-0.368-1.568-0.774l4.157-1.177zM7.812 17.769l1.954-0.343c0.052-0.013 0.127-0.013 0.178-0.027 1.204-0.303 1.5-1.342 1.245-2.353-0.311-1.238-1.439-2.401-2.695-2.086l-1.692 0.426 1.010 4.384zM6.631 12.705l1.744-0.438c0.545-0.49 0.931-1.458 0.734-2.244-0.277-1.1-1.155-1.787-2.237-1.515l-1.199 0.395 0.958 3.803z"></path>
<path fill="#FEFAF8" d="M15.495 12.057c-0.046-0.608-0.117-0.981-0.869-0.924-0.825 0.063-1.17 0.988-1.387 1.257-0.194-0.22-0.251-0.971-0.265-1.15-0.037-0.5 1.073-0.71 1.442-0.738 1.060-0.080 1.963 0.499 2.044 1.573l0.202 3.655c0.030 0.592 0.877 0.618 0.893 1.030l-1.743 0.258-0.002-1.008c-0.338 0.62-0.907 1.131-1.438 1.171-0.766 0.058-1.482-0.59-1.563-1.664-0.116-1.538 1.291-1.933 2.235-2.004 0.206-0.016 0.399-0.013 0.547-0.005l-0.096-1.452zM15.605 13.903c-0.645 0.084-1.235 0.309-1.607 0.481-0.186 0.086-0.218 0.449-0.185 0.896 0.048 0.626 0.377 1.249 0.833 1.215 0.207-0.016 1.076-0.855 1.074-0.891l-0.115-1.701z"></path>
<path fill="#FEFAF8" d="M20.239 12.3c1.491-0.027 2.193 1.113 2.215 2.368 0.027 1.477-0.86 3.089-2.411 3.118-0.665 0.012-2.366-0.105-2.362-0.622l0.007-7.625c0.005-0.562-0.748-0.533-0.739-0.859l1.749-0.505-0.142 1.17 0.066 3.589c0.555-0.454 1.098-0.627 1.615-0.636zM18.626 17.012c0.179 0.1 0.803 0.252 1.291 0.242 1.049-0.019 1.533-1.047 1.514-2.111-0.023-1.285-0.662-2.205-1.622-2.187-0.34 0.006-0.853 0.222-1.174 0.405l-0.007 3.65z"></path>
<path fill="#FEFAF8" d="M21.906 9.103c-0.121-0.656-0.703-0.781-0.471-1.254l3.268 0.7c-0.144 0.469-1.439 0.214-1.339 0.866l0.829 5.183 2.793-4.409c0.358-0.554-0.72-0.806-0.576-1.277l2.705 0.579c-0.227 0.452-0.794 0.353-1.194 0.898l-5.899 8.445c-0.598 0.764-1.388 1.402-2.551 1.347-0.681-0.276-0.73-0.657-0.706-1.478 1.295 0.255 2.346 0.022 2.775-0.56l1.705-2.269-1.339-6.771z"></path>
<path fill="#FEFAF8" d="M6.896 28.267c0.029 0.537 1.279 0.499 1.312 0.896l-3.626 0.311c0.017-0.401 1.118-0.548 1.081-1.188l-0.523-7.905c-0.036-0.623-1.371-0.561-1.389-0.977l4.465-0.47c1.745-0.149 2.687 0.9 2.797 2.177 0.098 1.14-0.509 2.375-1.713 3.14l2.941 3.453c0.523 0.615 1.267 0.586 1.305 1.001l-2.090 0.179c0 0-0.324-0.529-0.615-0.886l-2.449-2.991-0.315-0.426-1.434 0.123 0.253 3.564zM6.608 24.099l1.21-0.103c1.415-0.123 1.966-1.213 1.875-2.267-0.101-1.174-0.935-2.181-2.23-2.069l-1.135 0.15 0.281 4.289z"></path>
<path fill="#FEFAF8" d="M14.043 27.009c-1.475 0.441-2.63-0.494-3.003-1.739-0.437-1.467 0.165-3.215 2.029-3.772 1.413-0.422 2.571 0.425 2.956 1.714 0.425 1.423-0.076 3.227-1.982 3.796zM15.278 23.804c-0.311-1.041-1.238-1.926-2.359-1.591-1.004 0.3-1.415 1.481-1.111 2.5 0.311 1.042 1.373 1.886 2.304 1.609 1.043-0.311 1.467-1.515 1.167-2.517z"></path>
<path fill="#FEFAF8" d="M19.674 21.012c-1.685 0.038-2.447 1.403-2.416 2.794 0.032 1.424 1.059 2.661 2.559 2.628 1.402-0.032 2.203-0.67 2.203-0.67 0.012 0.044 0.023 0.086 0.025 0.13 0.014 0.673-1.486 1.142-2.431 1.163-2.020 0.046-3.17-1.321-3.205-2.896-0.041-1.771 1.071-3.6 3.461-3.653 0.794-0.018 1.937 0.087 1.948 0.554 0.005 0.251-0.030 0.621-0.146 0.775 0 0-0.943-0.848-1.997-0.825z"></path>
<path fill="#FEFAF8" d="M23.621 18.676c0.111-0.627-0.74-0.755-0.695-1.062 0.003-0.017 0.009-0.051 0.028-0.066l2.11-0.241-0.304 1.331-1.49 8.663c-0.083 0.441 0.979 0.67 0.922 1.061l-2.897-0.434c0.093-0.386 0.802-0.351 0.885-0.791l1.442-8.461zM24.909 24.62l2.298 3.273c0.432 0.605 1.119 0.672 1.057 1.082l-1.926-0.288c0.036-0.362-2.615-4.052-2.615-4.052l2.468-1.355c0.095-0.055 0.137-0.102 0.145-0.153 0.023-0.153-0.342-0.277-0.303-0.532 0.002-0.018 0.005-0.035 0.027-0.066l2.539 0.38c-0.161 0.377-0.953 0.31-1.745 0.715l-1.943 0.997z"></path>
<path fill="#FEFAF8" d="M11.884 8.334l6.897-0.595-1.212-3.207-1.582 1.542-1.369-3.646-0.497 4.055-1.495-1.143z"></path>
<path fill="#FEFAF8" d="M13.489 27.562l0.272 0.655 6.413 0.775-0.319-1.133z"></path>
<path fill="#FEFAF8" d="M18.129 18.083l-0.242 0.667-6.372 1.062 0.269-1.146z"></path>
<path fill="#FEFAF8" d="M5.679 16.9l-1.714-2.661-0.956-0.009 1.714 2.662z"></path>
<path fill="#FEFAF8" d="M4.661 17.796l-0.926-2.906-0.928-0.178 0.926 2.906z"></path>
<path fill="#FEFAF8" d="M25.76 21.746l1.593-2.736 0.955-0.051-1.593 2.736z"></path>
<path fill="#FEFAF8" d="M25.481 21.228l0.795-2.945 0.918-0.218-0.795 2.943z"></path>
</symbol>
</defs>
</svg>
