<svg aria-hidden="true" style="position: absolute; width: 0; height: 0; overflow: hidden;" version="1.1" xmlns="http://www.w3.org/2000/svg" xmlns:xlink="http://www.w3.org/1999/xlink">
<defs>
<symbol id="icon-arrow-left" viewBox="0 0 32 32">
<path d="M19.052 7.609c-0.521-0.521-1.365-0.521-1.886 0l-6.517 6.523c-1.041 1.042-1.040 2.729 0.001 3.77l6.52 6.521c0.521 0.521 1.365 0.521 1.886 0s0.521-1.365 0-1.886l-5.581-5.581c-0.521-0.521-0.521-1.365 0-1.886l5.576-5.576c0.521-0.521 0.521-1.365 0-1.886z"></path>
</symbol>
<symbol id="icon-arrow-right" viewBox="0 0 32 32">
<path d="M12.948 24.391c0.521 0.521 1.365 0.521 1.886 0l6.517-6.523c1.041-1.041 1.040-2.729-0.001-3.77l-6.521-6.52c-0.521-0.521-1.365-0.521-1.886 0s-0.521 1.365 0 1.886l5.581 5.581c0.521 0.521 0.521 1.365 0 1.886l-5.576 5.576c-0.521 0.521-0.521 1.365 0 1.886z"></path>
</symbol>
<symbol id="icon-about-3" viewBox="0 0 33 32">
<path d="M26.853 11.75h-2.125v-3.25c0-1.167-0.229-2.271-0.687-3.313s-1.083-1.938-1.875-2.688c-0.75-0.792-1.646-1.406-2.688-1.844s-2.146-0.656-3.312-0.656c-1.167 0-2.271 0.219-3.313 0.656s-1.938 1.052-2.687 1.844c-0.792 0.792-1.417 1.708-1.875 2.75s-0.687 2.146-0.687 3.313v3.187h-2.125c-0.125 0-0.24 0.052-0.344 0.156s-0.156 0.219-0.156 0.344v4.312c0 1.5 0.271 2.906 0.812 4.219s1.313 2.469 2.313 3.469c0.958 1.042 2.083 1.865 3.375 2.469s2.688 0.948 4.188 1.031c0 0-0.010 0-0.031 0s-0.031 0-0.031 0v3.188h-4.25c-0.125 0-0.24 0.052-0.344 0.156s-0.156 0.24-0.156 0.406c0 0.125 0.052 0.24 0.156 0.344s0.219 0.156 0.344 0.156h9.625c0.125 0 0.24-0.052 0.344-0.156s0.156-0.219 0.156-0.344c0-0.167-0.052-0.302-0.156-0.406s-0.219-0.156-0.344-0.156h-4.25v-3.188c0 0-0.010 0-0.031 0s-0.031 0-0.031 0c1.5-0.083 2.896-0.427 4.187-1.031s2.417-1.406 3.375-2.406c1-1.042 1.771-2.219 2.313-3.531s0.812-2.719 0.812-4.219v-4.312c0-0.125-0.052-0.24-0.156-0.344s-0.219-0.156-0.344-0.156zM8.728 8.563c0-1.042 0.188-2.021 0.563-2.938s0.917-1.708 1.625-2.375c0.667-0.667 1.448-1.198 2.344-1.594s1.865-0.594 2.906-0.594c1.042 0 2.010 0.198 2.906 0.594s1.677 0.927 2.344 1.594c0.708 0.667 1.25 1.448 1.625 2.344s0.563 1.865 0.563 2.906v3.25h-4.5c-0.083-0.333-0.219-0.646-0.406-0.938s-0.427-0.562-0.719-0.812c-0.25-0.208-0.542-0.375-0.875-0.5s-0.688-0.188-1.063-0.188c-0.375 0-0.729 0.063-1.063 0.188s-0.646 0.292-0.938 0.5c-0.25 0.25-0.479 0.521-0.688 0.812s-0.354 0.604-0.438 0.938h-4.188v-3.187zM8.728 12.812h4.125c0.042 0.417 0.146 0.802 0.313 1.156s0.396 0.656 0.687 0.906c0.292 0.25 0.625 0.458 1 0.625s0.771 0.25 1.188 0.25c0.417 0 0.802-0.083 1.156-0.25s0.677-0.375 0.969-0.625c0.292-0.25 0.531-0.552 0.719-0.906s0.281-0.74 0.281-1.156h4.438v3.75c0 1.042-0.188 2.010-0.563 2.906s-0.917 1.677-1.625 2.344c-0.667 0.667-1.448 1.198-2.344 1.594s-1.865 0.594-2.906 0.594c-1.042 0-2.010-0.198-2.906-0.594s-1.677-0.927-2.344-1.594c-0.708-0.667-1.25-1.458-1.625-2.375s-0.563-1.875-0.563-2.875v-3.75zM13.915 12.563c0-0.292 0.052-0.573 0.156-0.844s0.26-0.51 0.469-0.719c0.167-0.167 0.385-0.312 0.656-0.438s0.552-0.188 0.844-0.188 0.563 0.063 0.812 0.188c0.25 0.125 0.479 0.271 0.688 0.438 0.167 0.208 0.312 0.448 0.438 0.719s0.188 0.552 0.188 0.844-0.063 0.563-0.188 0.812c-0.125 0.25-0.271 0.479-0.438 0.688-0.208 0.167-0.438 0.312-0.688 0.438s-0.521 0.188-0.812 0.188-0.573-0.063-0.844-0.188c-0.271-0.125-0.49-0.271-0.656-0.438-0.208-0.208-0.365-0.438-0.469-0.688s-0.156-0.521-0.156-0.812zM26.29 16.563c0 1.375-0.26 2.677-0.781 3.906s-1.24 2.302-2.156 3.219c-0.917 0.917-1.99 1.646-3.219 2.187s-2.552 0.813-3.969 0.813c-1.417 0-2.74-0.271-3.969-0.813s-2.302-1.271-3.219-2.187c-0.917-0.917-1.635-1.99-2.156-3.219s-0.781-2.531-0.781-3.906v-3.75h1.563v3.75c0 1.167 0.229 2.271 0.687 3.312s1.083 1.938 1.875 2.688c0.75 0.792 1.646 1.406 2.687 1.844s2.146 0.656 3.313 0.656c1.167 0 2.271-0.219 3.312-0.656s1.938-1.052 2.688-1.844c0.792-0.75 1.417-1.646 1.875-2.688s0.687-2.146 0.687-3.312v-3.75h1.563v3.75z"></path>
</symbol>
<symbol id="icon-about-2" viewBox="0 0 33 32">
<path d="M24.164 31.281h-14.938c-0.146 0-0.271-0.052-0.375-0.156s-0.156-0.24-0.156-0.406v-12.25c-1.146-0.021-2.193-0.203-3.141-0.547s-1.76-0.823-2.438-1.438-1.208-1.354-1.594-2.219c-0.385-0.865-0.578-1.807-0.578-2.828s0.193-1.964 0.578-2.828c0.385-0.865 0.927-1.604 1.625-2.219s1.531-1.094 2.5-1.438 2.026-0.516 3.172-0.516c0.125 0 0.25 0.005 0.375 0.016s0.25 0.026 0.375 0.047c0.708-1.167 1.656-2.089 2.844-2.766s2.469-1.016 3.844-1.016c1.354 0 2.63 0.339 3.828 1.016s2.151 1.599 2.859 2.766c0.125-0.021 0.255-0.036 0.391-0.047s0.266-0.016 0.391-0.016c1.104 0 2.146 0.203 3.125 0.609s1.828 0.969 2.547 1.688c0.719 0.719 1.292 1.552 1.719 2.5s0.641 1.964 0.641 3.047c0 1.042-0.214 2.021-0.641 2.938s-0.979 1.724-1.656 2.422-1.432 1.266-2.266 1.703c-0.833 0.438-1.667 0.698-2.5 0.781v10.625c0 0.146-0.052 0.271-0.156 0.375s-0.229 0.156-0.375 0.156zM9.758 30.188h13.875v-10.563c0-0.146 0.052-0.271 0.156-0.375s0.229-0.156 0.375-0.156c0.729 0 1.479-0.177 2.25-0.531s1.474-0.839 2.109-1.453c0.635-0.615 1.151-1.333 1.547-2.156s0.594-1.714 0.594-2.672c0-0.938-0.182-1.818-0.547-2.641s-0.859-1.542-1.484-2.156c-0.625-0.615-1.359-1.099-2.203-1.453s-1.745-0.531-2.703-0.531c-0.146 0-0.312 0.010-0.5 0.031s-0.354 0.042-0.5 0.063c-0.104 0.021-0.203 0.005-0.297-0.047s-0.172-0.13-0.234-0.234c-0.604-1.083-1.438-1.938-2.5-2.563s-2.208-0.938-3.438-0.938-2.375 0.313-3.438 0.938c-1.063 0.625-1.896 1.479-2.5 2.563-0.063 0.104-0.141 0.182-0.234 0.234s-0.203 0.068-0.328 0.047l-0.094-0.031c-0.146-0.021-0.286-0.036-0.422-0.047s-0.276-0.016-0.422-0.016c-1 0-1.917 0.146-2.75 0.438s-1.547 0.698-2.141 1.219c-0.594 0.521-1.057 1.146-1.391 1.875s-0.5 1.531-0.5 2.406c0 0.875 0.167 1.677 0.5 2.406s0.797 1.359 1.391 1.891c0.594 0.531 1.307 0.943 2.141 1.234s1.75 0.438 2.75 0.438h0.406c0.146 0 0.271 0.052 0.375 0.156s0.156 0.229 0.156 0.375v12.25zM27.946 12.844c-0.146 0-0.271-0.052-0.375-0.156s-0.156-0.24-0.156-0.406c0-1.104-0.375-2.042-1.125-2.812s-1.667-1.156-2.75-1.156c-0.146 0-0.271-0.052-0.375-0.156s-0.156-0.229-0.156-0.375c0-0.146 0.052-0.271 0.156-0.375s0.229-0.156 0.375-0.156c1.375 0 2.542 0.49 3.5 1.469s1.438 2.167 1.438 3.562c0 0.167-0.052 0.302-0.156 0.406s-0.229 0.156-0.375 0.156zM23.633 27h-13.875c-0.146 0-0.271-0.052-0.375-0.156s-0.156-0.229-0.156-0.375c0-0.146 0.052-0.271 0.156-0.375s0.229-0.156 0.375-0.156h13.875c0.146 0 0.271 0.052 0.375 0.156s0.156 0.229 0.156 0.375c0 0.146-0.052 0.271-0.156 0.375s-0.229 0.156-0.375 0.156zM20.977 24.344c-0.146 0-0.271-0.052-0.375-0.156s-0.156-0.229-0.156-0.375v-2.156c0-0.146 0.052-0.271 0.156-0.375s0.229-0.156 0.375-0.156c0.146 0 0.271 0.052 0.375 0.156s0.156 0.229 0.156 0.375v2.156c0 0.146-0.052 0.271-0.156 0.375s-0.229 0.156-0.375 0.156z"></path>
</symbol>
<symbol id="icon-about-1" viewBox="0 0 32 32">
<path d="M4 27.938c-0.542 0-1.052-0.146-1.531-0.438s-0.885-0.646-1.219-1.063c-0.333-0.417-0.604-0.896-0.813-1.438s-0.313-1.063-0.313-1.563c0-0.125 0.104-1.542 0.313-4.25s0.354-4.646 0.438-5.813c0.125-0.708 0.354-1.354 0.688-1.938s0.75-1.083 1.25-1.5c0.542-0.417 1.135-0.74 1.781-0.969s1.344-0.344 2.094-0.344c0.333 0 0.656 0.042 0.969 0.125s0.635 0.208 0.969 0.375c0.292 0.125 0.594 0.302 0.906 0.531s0.594 0.49 0.844 0.781h11.25c0.25-0.292 0.531-0.552 0.844-0.781s0.615-0.406 0.906-0.531c0.333-0.167 0.656-0.292 0.969-0.375s0.635-0.125 0.969-0.125c0.75 0 1.458 0.104 2.125 0.312s1.25 0.5 1.75 0.875c0.5 0.375 0.906 0.833 1.219 1.375s0.531 1.146 0.656 1.812c0.042 0 0.063 0.010 0.063 0.031s0 0.052 0 0.094c0.083 1.208 0.229 3.25 0.438 6.125s0.312 4.354 0.312 4.438c0 0.583-0.104 1.125-0.312 1.625s-0.5 0.938-0.875 1.313c-0.333 0.375-0.74 0.677-1.219 0.906s-0.969 0.344-1.469 0.344c-0.542 0-1.021-0.052-1.438-0.156s-0.75-0.24-1-0.406c-0.292-0.125-0.521-0.292-0.688-0.5s-0.312-0.417-0.438-0.625c0 0 0-0.010 0-0.031s0-0.031 0-0.031l-1.5-3.438c-0.167 0.125-0.344 0.219-0.531 0.281s-0.385 0.115-0.594 0.156c-0.167 0-0.354 0.010-0.562 0.031s-0.396 0.031-0.563 0.031c-0.417 0-0.813-0.052-1.188-0.156s-0.708-0.24-1-0.406c-0.333-0.208-0.625-0.438-0.875-0.688s-0.438-0.521-0.563-0.812h-2.063c-0.167 0.292-0.365 0.583-0.594 0.875s-0.51 0.542-0.844 0.75c-0.292 0.25-0.635 0.438-1.031 0.563s-0.802 0.188-1.219 0.188c-0.208 0-0.417-0.031-0.625-0.094s-0.417-0.135-0.625-0.219c-0.167-0.083-0.344-0.188-0.531-0.313s-0.344-0.25-0.469-0.375l-1.5 3.625c0 0 0 0.010 0 0.031s0 0.031 0 0.031c-0.125 0.208-0.271 0.417-0.438 0.625s-0.396 0.396-0.688 0.563c-0.25 0.167-0.583 0.302-1 0.406s-0.896 0.156-1.438 0.156zM6.688 9.688c-0.625 0-1.198 0.094-1.719 0.281s-0.99 0.448-1.406 0.781c-0.417 0.333-0.771 0.74-1.063 1.219s-0.479 0.99-0.563 1.531c-0.125 1.917-0.281 4.010-0.469 6.281s-0.281 3.49-0.281 3.656c0 0.375 0.073 0.76 0.219 1.156s0.344 0.76 0.594 1.094c0.25 0.333 0.552 0.604 0.906 0.812s0.719 0.312 1.094 0.312c0.25 0 0.5-0.010 0.75-0.031s0.5-0.073 0.75-0.156c0.25-0.083 0.469-0.198 0.656-0.344s0.344-0.344 0.469-0.594c0 0 0-0.021 0-0.063l1.75-4.25c0-0.083 0.042-0.156 0.125-0.219s0.167-0.115 0.25-0.156c0.083 0 0.167 0.021 0.25 0.063s0.167 0.083 0.25 0.125c0.125 0.167 0.26 0.323 0.406 0.469s0.323 0.26 0.531 0.344c0.167 0.125 0.344 0.229 0.531 0.312s0.385 0.125 0.594 0.125c0.375 0 0.719-0.063 1.031-0.187s0.573-0.292 0.781-0.5c0.25-0.208 0.458-0.427 0.625-0.656s0.271-0.448 0.313-0.656c0.042-0.125 0.115-0.219 0.219-0.281s0.219-0.094 0.344-0.094h2.75c0.125 0 0.24 0.031 0.344 0.094s0.177 0.156 0.219 0.281c0.042 0.208 0.146 0.406 0.313 0.594s0.375 0.365 0.625 0.531c0.208 0.167 0.469 0.302 0.781 0.406s0.656 0.156 1.031 0.156c0.208 0 0.417-0.010 0.625-0.031s0.396-0.052 0.563-0.094c0.208-0.042 0.375-0.104 0.5-0.188s0.25-0.187 0.375-0.312c0.042-0.083 0.115-0.135 0.219-0.156s0.198-0.031 0.281-0.031c0.083 0.042 0.156 0.083 0.219 0.125s0.115 0.104 0.156 0.188l1.75 4c0 0 0 0.010 0 0.031s0 0.031 0 0.031c0.083 0.167 0.208 0.323 0.375 0.469s0.354 0.281 0.563 0.406c0.208 0.083 0.458 0.146 0.75 0.187s0.604 0.063 0.938 0.063c0.375 0 0.729-0.083 1.063-0.25s0.625-0.396 0.875-0.688c0.25-0.292 0.458-0.625 0.625-1s0.25-0.771 0.25-1.187c0-0.125-0.083-1.375-0.25-3.75s-0.333-4.583-0.5-6.625c0 0 0-0.021 0-0.062-0.083-0.542-0.26-1.031-0.531-1.469s-0.615-0.802-1.031-1.094c-0.417-0.333-0.896-0.583-1.438-0.75s-1.125-0.25-1.75-0.25c-0.25 0-0.51 0.042-0.781 0.125s-0.531 0.188-0.781 0.313c-0.292 0.125-0.562 0.292-0.812 0.5s-0.479 0.438-0.687 0.687c-0.042 0.083-0.104 0.135-0.188 0.156s-0.167 0.031-0.25 0.031h-11.625c-0.083 0-0.167-0.010-0.25-0.031s-0.146-0.073-0.188-0.156c-0.208-0.25-0.438-0.479-0.687-0.687s-0.521-0.375-0.812-0.5c-0.25-0.125-0.51-0.229-0.781-0.313s-0.531-0.125-0.781-0.125zM7.188 16.812h-3.188c-0.125 0-0.24-0.052-0.344-0.156s-0.156-0.219-0.156-0.344c0-0.167 0.052-0.302 0.156-0.406s0.219-0.156 0.344-0.156h3.188c0.167 0 0.302 0.052 0.406 0.156s0.156 0.24 0.156 0.406c0 0.125-0.052 0.24-0.156 0.344s-0.24 0.156-0.406 0.156zM5.625 18.438c-0.167 0-0.302-0.052-0.406-0.156s-0.156-0.219-0.156-0.344v-3.25c0-0.125 0.052-0.24 0.156-0.344s0.24-0.156 0.406-0.156c0.125 0 0.24 0.052 0.344 0.156s0.156 0.219 0.156 0.344v3.25c0 0.125-0.052 0.24-0.156 0.344s-0.219 0.156-0.344 0.156zM24 14.063c0 0.167-0.031 0.333-0.094 0.5s-0.156 0.312-0.281 0.438c-0.125 0.125-0.271 0.219-0.438 0.281s-0.333 0.094-0.5 0.094c-0.208 0-0.396-0.031-0.563-0.094s-0.292-0.156-0.375-0.281c-0.125-0.125-0.229-0.271-0.312-0.438s-0.125-0.333-0.125-0.5c0-0.208 0.042-0.396 0.125-0.563s0.188-0.292 0.312-0.375c0.083-0.125 0.208-0.229 0.375-0.313s0.354-0.125 0.563-0.125c0.167 0 0.333 0.042 0.5 0.125s0.312 0.188 0.438 0.313c0.125 0.083 0.219 0.208 0.281 0.375s0.094 0.354 0.094 0.563zM28 14.063c0 0.167-0.031 0.333-0.094 0.5s-0.156 0.312-0.281 0.438c-0.125 0.125-0.271 0.219-0.438 0.281s-0.333 0.094-0.5 0.094c-0.208 0-0.396-0.031-0.563-0.094s-0.292-0.156-0.375-0.281c-0.125-0.125-0.229-0.271-0.312-0.438s-0.125-0.333-0.125-0.5c0-0.208 0.042-0.396 0.125-0.563s0.188-0.292 0.312-0.375c0.083-0.125 0.208-0.229 0.375-0.313s0.354-0.125 0.563-0.125c0.167 0 0.333 0.042 0.5 0.125s0.312 0.188 0.438 0.313c0.125 0.083 0.219 0.208 0.281 0.375s0.094 0.354 0.094 0.563zM24 18.063c0 0.167-0.031 0.333-0.094 0.5s-0.156 0.312-0.281 0.438c-0.125 0.125-0.271 0.219-0.438 0.281s-0.333 0.094-0.5 0.094c-0.208 0-0.396-0.031-0.563-0.094s-0.292-0.156-0.375-0.281c-0.125-0.125-0.229-0.271-0.312-0.438s-0.125-0.333-0.125-0.5c0-0.208 0.042-0.396 0.125-0.563s0.188-0.292 0.312-0.375c0.083-0.125 0.208-0.229 0.375-0.313s0.354-0.125 0.563-0.125c0.167 0 0.333 0.042 0.5 0.125s0.312 0.188 0.438 0.313c0.125 0.083 0.219 0.208 0.281 0.375s0.094 0.354 0.094 0.563zM28 18.063c0 0.167-0.031 0.333-0.094 0.5s-0.156 0.312-0.281 0.438c-0.125 0.125-0.271 0.219-0.438 0.281s-0.333 0.094-0.5 0.094c-0.208 0-0.396-0.031-0.563-0.094s-0.292-0.156-0.375-0.281c-0.125-0.125-0.229-0.271-0.312-0.438s-0.125-0.333-0.125-0.5c0-0.208 0.042-0.396 0.125-0.563s0.188-0.292 0.312-0.375c0.083-0.125 0.208-0.229 0.375-0.313s0.354-0.125 0.563-0.125c0.167 0 0.333 0.042 0.5 0.125s0.312 0.188 0.438 0.313c0.125 0.083 0.219 0.208 0.281 0.375s0.094 0.354 0.094 0.563zM14.688 16.812h-1.063c-0.167 0-0.302-0.052-0.406-0.156s-0.156-0.219-0.156-0.344c0-0.167 0.052-0.302 0.156-0.406s0.24-0.156 0.406-0.156h1.063c0.125 0 0.24 0.052 0.344 0.156s0.156 0.24 0.156 0.406c0 0.125-0.052 0.24-0.156 0.344s-0.219 0.156-0.344 0.156zM18.938 16.812h-1.063c-0.125 0-0.24-0.052-0.344-0.156s-0.156-0.219-0.156-0.344c0-0.167 0.052-0.302 0.156-0.406s0.219-0.156 0.344-0.156h1.063c0.167 0 0.302 0.052 0.406 0.156s0.156 0.24 0.156 0.406c0 0.125-0.052 0.24-0.156 0.344s-0.24 0.156-0.406 0.156zM15.312 11.25c-0.125 0-0.24-0.052-0.344-0.156s-0.156-0.24-0.156-0.406c0-0.458 0.021-0.865 0.063-1.219s0.125-0.635 0.25-0.844c0.083-0.25 0.177-0.469 0.281-0.656s0.198-0.344 0.281-0.469c0.125-0.167 0.229-0.323 0.312-0.469s0.167-0.323 0.25-0.531c0.042-0.208 0.083-0.458 0.125-0.75s0.063-0.667 0.063-1.125c0-0.167 0.052-0.302 0.156-0.406s0.24-0.156 0.406-0.156c0.167 0 0.302 0.052 0.406 0.156s0.156 0.24 0.156 0.406c0 0.542-0.031 0.99-0.094 1.344s-0.135 0.677-0.219 0.969c-0.125 0.25-0.24 0.469-0.344 0.656s-0.219 0.365-0.344 0.531c-0.083 0.125-0.167 0.26-0.25 0.406s-0.167 0.302-0.25 0.469c-0.042 0.208-0.083 0.448-0.125 0.719s-0.063 0.594-0.063 0.969c0 0.167-0.052 0.302-0.156 0.406s-0.24 0.156-0.406 0.156z"></path>
</symbol>
<symbol id="icon-rock" viewBox="0 0 32 32">
<path d="M23.5 0c-1.93 0-3.5 1.57-3.5 3.5v6.84c-0.455-0.22-0.965-0.34-1.5-0.34-0.98 0-1.865 0.405-2.5 1.055-0.635-0.65-1.52-1.055-2.5-1.055-0.535 0-1.045 0.12-1.5 0.34v-6.84c0-1.93-1.57-3.5-3.5-3.5s-3.5 1.57-3.5 3.5v17.5c0 6.065 4.935 11 11 11 6.030 0 10.945-4.88 10.995-10.9 0.005-0.035 0.005-0.065 0.005-0.1v-17.5c0-1.93-1.57-3.5-3.5-3.5zM22 3.5c0-0.825 0.675-1.5 1.5-1.5s1.5 0.675 1.5 1.5v12.89c-0.935-0.755-2.045-1.145-3-1.305v-11.585zM17 13.5c0-0.825 0.675-1.5 1.5-1.5s1.5 0.675 1.5 1.5v1.5h-3v-1.5zM12 13.5c0-0.825 0.675-1.5 1.5-1.5s1.5 0.675 1.5 1.5v1.5h-3v-1.5zM16 30c-4.965 0-9-4.040-9-9v-17.5c0-0.825 0.675-1.5 1.5-1.5s1.5 0.675 1.5 1.5v12.5c0 0.82 0.195 1.925 0.72 2.96 0.81 1.595 2.405 3.040 5.28 3.040h0.365c-0.805 0.915-1.365 2.21-1.365 4 0 0.55 0.45 1 1 1s1-0.45 1-1c0-3.855 3.595-3.995 4-4 0.55 0 1-0.45 1-1s-0.45-1-1-1h-5c-1.33 0-2.215-0.425-2.805-1-0.63-0.61-0.925-1.385-1.070-2h8.87c0.12 0 0.51 0.015 1.005 0.13 1.035 0.235 2.53 0.92 2.91 2.87 0.060 0.3 0.090 0.635 0.090 1 0 0.34-0.020 0.67-0.055 1-0.5 4.49-4.325 8-8.945 8z"></path>
</symbol>
<symbol id="icon-button-arrow" viewBox="0 0 32 32">
<path d="M31.427 19.049c0 1.872-0.716 4.415-2.149 7.63-0.034 0.079-0.093 0.214-0.178 0.406s-0.161 0.361-0.229 0.508c-0.068 0.147-0.141 0.271-0.22 0.372-0.135 0.192-0.293 0.288-0.474 0.288-0.169 0-0.302-0.056-0.397-0.169s-0.144-0.254-0.144-0.423c0-0.102 0.014-0.251 0.042-0.448s0.042-0.33 0.042-0.398c0.056-0.767 0.085-1.461 0.085-2.081 0-1.139-0.099-2.16-0.296-3.062s-0.471-1.683-0.821-2.343c-0.35-0.66-0.801-1.229-1.353-1.709s-1.147-0.871-1.785-1.176c-0.637-0.305-1.387-0.544-2.25-0.719s-1.731-0.296-2.605-0.364-1.864-0.101-2.969-0.101h-3.789v4.331c0 0.293-0.107 0.547-0.321 0.761s-0.468 0.321-0.761 0.321-0.547-0.107-0.761-0.321l-8.662-8.662c-0.214-0.214-0.321-0.468-0.321-0.761s0.107-0.547 0.321-0.761l8.662-8.662c0.214-0.214 0.468-0.321 0.761-0.321s0.547 0.107 0.761 0.321c0.214 0.214 0.321 0.468 0.321 0.761v4.331h3.789c8.041 0 12.976 2.273 14.803 6.818 0.598 1.511 0.897 3.389 0.897 5.633z"></path>
</symbol>
<symbol id="icon-call" viewBox="0 0 32 32">
<path d="M19.52 2.784c-3.776 1.312-7.136 4.8-9.888 10.176-1.856 3.648-2.624 6.048-2.816 8.8-0.32 4.32 0.64 6.176 3.68 7.168 2.304 0.768 3.104 0.352 4.448-2.368 1.536-3.104 1.408-3.936-1.088-6.272l-1.376-1.28 0.448-1.504c0.576-1.92 1.792-3.968 3.040-5.152l0.992-0.96 1.696 0.544c0.96 0.288 2.016 0.544 2.368 0.544 0.928 0 2.112-1.024 3.264-2.816 1.344-2.112 1.312-3.232-0.192-4.896-1.6-1.76-3.2-2.464-4.576-1.984z"></path>
</symbol>
<symbol id="icon-double-down" viewBox="0 0 32 32">
<path d="M4.288 5.92c-0.416 1.088 0.384 2.144 5.568 7.264 3.904 3.904 5.6 5.376 6.144 5.376s2.208-1.44 6.016-5.216c5.536-5.472 6.304-6.432 5.792-7.36-0.704-1.248-1.664-0.608-6.752 4.48l-5.056 5.056-5.056-5.056c-4.992-4.992-6.176-5.792-6.656-4.544z"></path>
<path d="M4.288 13.92c-0.416 1.088 0.384 2.144 5.568 7.264 3.904 3.904 5.6 5.376 6.144 5.376s2.208-1.44 6.016-5.216c5.536-5.472 6.304-6.432 5.792-7.36-0.704-1.248-1.664-0.608-6.752 4.48l-5.056 5.056-5.056-5.056c-4.992-4.992-6.176-5.792-6.656-4.544z"></path>
</symbol>
<symbol id="icon-double-right" viewBox="0 0 32 32">
<path d="M5.664 4.384c-0.736 0.704 0.096 1.824 4.8 6.56l5.056 5.056-5.056 5.056c-5.088 5.088-5.728 6.048-4.48 6.752 0.928 0.512 1.888-0.256 7.392-5.792 3.776-3.84 5.184-5.472 5.184-6.016 0-1.152-10.688-11.84-11.84-11.84-0.48 0-0.96 0.096-1.056 0.224z"></path>
<path d="M13.664 4.384c-0.736 0.704 0.096 1.824 4.8 6.56l5.056 5.056-5.056 5.056c-5.088 5.088-5.728 6.048-4.48 6.752 0.928 0.512 1.888-0.256 7.392-5.792 3.776-3.84 5.184-5.472 5.184-6.016 0-1.152-10.688-11.84-11.84-11.84-0.48 0-0.96 0.096-1.056 0.224z"></path>
</symbol>
<symbol id="icon-facebook" viewBox="0 0 32 32">
<path d="M13.632 2.912c-2.464 0.384-5.344 1.984-7.2 3.968-4.992 5.248-4.992 12.992 0 18.24 1.696 1.792 4.512 3.424 6.624 3.84l1.024 0.224v-9.664h-1.312c-1.792 0-2.528-0.448-2.528-1.6 0-1.312 0.768-1.92 2.432-1.92h1.408v-2.176c0-3.776 1.536-5.504 4.928-5.6 1.92-0.032 2.752 0.416 2.752 1.536 0 0.896-0.576 1.376-1.952 1.632-1.472 0.288-1.888 0.896-1.888 2.912v1.696h1.376c1.632 0 2.144 0.416 2.144 1.76s-0.512 1.76-2.144 1.76h-1.376v9.664l1.056-0.192c2.016-0.384 4.896-2.080 6.592-3.872 4.992-5.248 4.992-12.992 0-18.24-1.888-1.984-4.64-3.488-7.296-4-1.92-0.352-2.4-0.352-4.64 0.032z"></path>
</symbol>
<symbol id="icon-google-maps" viewBox="0 0 32 32">
<path d="M13.472 3.040c-4.256 1.184-7.008 4.512-7.328 8.832-0.192 2.976 0.448 4.672 3.584 9.376 1.44 2.176 2.816 4.576 3.040 5.344 0.768 2.56 1.28 3.488 2.176 3.84 2.016 0.768 3.36-0.416 4.224-3.712 0.192-0.704 1.568-3.136 3.072-5.376 2.816-4.288 3.68-6.336 3.68-8.864 0-6.176-6.496-11.072-12.448-9.44zM14.496 6.88c-0.64 0.8-1.28 1.44-1.376 1.44-0.128 0-0.544-0.352-0.96-0.8l-0.736-0.8 1.408-0.64c0.768-0.352 1.728-0.64 2.144-0.64 0.704 0 0.672 0.064-0.48 1.44zM20.96 7.52c1.6 1.568 1.76 2.336 0.768 3.232-0.64 0.576-0.672 0.576-0.992-0.032-0.576-0.992-1.76-1.952-2.816-2.272l-0.96-0.288 0.832-1.056c0.448-0.544 1.024-1.024 1.28-1.024s1.12 0.64 1.888 1.44zM11.2 10.56c0 0.128-0.576 0.864-1.312 1.632l-1.28 1.408 0.128-1.44c0.096-0.8 0.32-1.856 0.512-2.368l0.384-0.928 0.768 0.736c0.448 0.416 0.8 0.864 0.8 0.96zM18.016 11.552c1.344 1.664 0.096 4.448-2.016 4.448-1.952 0-3.36-2.72-2.144-4.224 1.056-1.344 3.104-1.472 4.16-0.224zM22.72 15.264c-0.352 0.832-1.728 3.104-3.040 5.056-1.312 1.984-2.624 4.32-2.944 5.344s-0.64 1.856-0.736 1.856c-0.16 0-1.248-2.976-1.376-3.776-0.096-0.512 8.512-10.784 8.672-10.336 0.064 0.16-0.192 1.024-0.576 1.856zM11.584 16.352c0.352 0.576 1.152 1.216 2.016 1.6l1.44 0.64-1.024 1.248c-0.544 0.704-1.024 1.28-1.088 1.28-0.032 0-0.736-0.992-1.568-2.208-1.28-1.888-1.44-2.304-1.152-2.88 0.512-0.896 0.736-0.864 1.376 0.32z"></path>
</symbol>
<symbol id="icon-instagram" viewBox="0 0 32 32">
<path d="M7.84 4.672c-1.344 0.704-2.592 1.952-3.264 3.296-0.512 0.992-0.576 2.048-0.576 8.032 0 6.080 0.064 7.008 0.608 8.096 0.768 1.568 2.88 3.36 4.32 3.648 1.536 0.352 12.672 0.32 14.24 0 1.664-0.352 4.224-2.912 4.576-4.576 0.32-1.568 0.352-12.704 0-14.24-0.288-1.44-2.24-3.744-3.648-4.32-1.6-0.672-14.944-0.64-16.256 0.064zM24.96 7.2c0.832 1.024-0.416 2.592-1.504 1.888-1.12-0.704-0.736-2.368 0.544-2.368 0.32 0 0.736 0.224 0.96 0.48zM18.048 9.664c2.784 0.832 5.024 4.352 4.576 7.168-0.64 3.936-4.48 6.592-8.128 5.632-5.12-1.376-6.848-7.424-3.136-11.104 1.888-1.92 4.064-2.464 6.688-1.696z"></path>
<path d="M13.248 13.248c-0.96 0.96-1.088 1.28-1.088 2.752s0.128 1.792 1.088 2.752c0.96 0.96 1.28 1.088 2.752 1.088s1.792-0.128 2.752-1.088c0.96-0.96 1.088-1.28 1.088-2.752s-0.128-1.792-1.088-2.752c-0.96-0.96-1.28-1.088-2.752-1.088s-1.792 0.128-2.752 1.088z"></path>
</symbol>
<symbol id="icon-viber" viewBox="0 0 32 32">
<path d="M11.264 2.4c-2.56 0.576-4.448 1.472-5.792 2.784-1.44 1.408-1.952 2.528-2.464 5.344-1.344 7.616 0.576 13.664 4.832 15.072l1.12 0.384v2.688c0 3.456 0.352 3.488 3.36 0.448 2.176-2.176 2.272-2.24 3.84-2.24 2.656 0 6.944-0.64 8.32-1.248 1.696-0.736 3.136-2.432 4.032-4.736 0.64-1.6 0.736-2.464 0.736-6.176 0.032-6.656-1.184-9.472-4.864-11.2-3.136-1.472-9.12-1.984-13.12-1.12zM20.256 7.456c1.696 0.992 3.072 3.072 3.328 4.992 0.224 1.6-0.096 2.912-0.704 2.912-0.352 0-0.48-0.384-0.48-1.536 0-1.632-0.832-3.744-1.792-4.608-1.024-0.896-2.88-1.536-4.448-1.536-1.024 0-1.44-0.128-1.44-0.448 0-0.672 0.576-0.832 2.432-0.736 1.056 0.064 2.144 0.416 3.104 0.96zM12 9.024c1.504 1.792 1.696 2.656 0.832 3.584-0.352 0.384-0.672 1.056-0.672 1.504 0 1.6 2.912 4.448 4.544 4.448 0.416 0 0.992-0.288 1.312-0.64 0.288-0.352 0.8-0.64 1.152-0.64 0.672 0 3.872 2.4 3.872 2.912 0 1.472-2.112 3.104-3.584 2.752-1.12-0.288-4.544-2.464-6.336-4-2.496-2.144-5.44-6.912-5.44-8.768 0-0.8 1.696-2.496 2.496-2.496 0.384 0 1.152 0.608 1.824 1.344zM19.456 9.184c1.472 1.12 2.112 2.24 2.112 3.84 0.032 1.152-0.096 1.536-0.448 1.536-0.288 0-0.544-0.448-0.672-1.216-0.096-0.672-0.384-1.568-0.608-1.984-0.48-0.896-2.112-1.76-3.296-1.76-0.896 0-1.344-0.448-0.992-0.992 0.32-0.544 2.944-0.16 3.904 0.576zM18.208 10.72c0.992 0.48 1.824 2.080 1.504 2.88-0.288 0.8-0.8 0.544-1.28-0.608-0.288-0.704-0.768-1.184-1.44-1.408-0.96-0.352-1.216-0.704-0.768-1.12 0.32-0.352 1.024-0.256 1.984 0.256z"></path>
</symbol>
</defs>
</svg>
