<svg aria-hidden="true" style="position: absolute; width: 0; height: 0; overflow: hidden;" version="1.1" xmlns="http://www.w3.org/2000/svg" xmlns:xlink="http://www.w3.org/1999/xlink">
<defs>
<symbol id="icon-mail" viewBox="0 0 32 32">
<path d="M16 0c-8.837 0-16 7.163-16 16s7.163 16 16 16 16-7.163 16-16-7.163-16-16-16zM8 8h16c0.286 0 0.563 0.061 0.817 0.177l-8.817 10.286-8.817-10.287c0.254-0.116 0.531-0.177 0.817-0.177zM6 22v-12c0-0.042 0.002-0.084 0.004-0.125l5.864 6.842-5.8 5.8c-0.045-0.167-0.069-0.34-0.069-0.517zM24 24h-16c-0.177 0-0.35-0.024-0.517-0.069l5.691-5.691 2.826 3.297 2.826-3.297 5.691 5.691c-0.167 0.045-0.34 0.069-0.517 0.069zM26 22c0 0.177-0.024 0.35-0.069 0.517l-5.8-5.8 5.865-6.842c0.003 0.041 0.004 0.083 0.004 0.125v12z"></path>
</symbol>
<symbol id="icon-spinner" viewBox="0 0 32 32">
<path d="M16 0c-8.711 0-15.796 6.961-15.995 15.624 0.185-7.558 5.932-13.624 12.995-13.624 7.18 0 13 6.268 13 14 0 1.657 1.343 3 3 3s3-1.343 3-3c0-8.837-7.163-16-16-16zM16 32c8.711 0 15.796-6.961 15.995-15.624-0.185 7.558-5.932 13.624-12.995 13.624-7.18 0-13-6.268-13-14 0-1.657-1.343-3-3-3s-3 1.343-3 3c0 8.837 7.163 16 16 16z"></path>
</symbol>
<symbol id="icon-star" viewBox="0 0 32 32">
<path d="M32 12.408l-11.056-1.607-4.944-10.018-4.944 10.018-11.056 1.607 8 7.798-1.889 11.011 9.889-5.199 9.889 5.199-1.889-11.011 8-7.798z"></path>
</symbol>
<symbol id="icon-rock" viewBox="0 0 32 32">
<path d="M23.5 0c-1.93 0-3.5 1.57-3.5 3.5v6.84c-0.455-0.22-0.965-0.34-1.5-0.34-0.98 0-1.865 0.405-2.5 1.055-0.635-0.65-1.52-1.055-2.5-1.055-0.535 0-1.045 0.12-1.5 0.34v-6.84c0-1.93-1.57-3.5-3.5-3.5s-3.5 1.57-3.5 3.5v17.5c0 6.065 4.935 11 11 11 6.030 0 10.945-4.88 10.995-10.9 0.005-0.035 0.005-0.065 0.005-0.1v-17.5c0-1.93-1.57-3.5-3.5-3.5zM22 3.5c0-0.825 0.675-1.5 1.5-1.5s1.5 0.675 1.5 1.5v12.89c-0.935-0.755-2.045-1.145-3-1.305v-11.585zM17 13.5c0-0.825 0.675-1.5 1.5-1.5s1.5 0.675 1.5 1.5v1.5h-3v-1.5zM12 13.5c0-0.825 0.675-1.5 1.5-1.5s1.5 0.675 1.5 1.5v1.5h-3v-1.5zM16 30c-4.965 0-9-4.040-9-9v-17.5c0-0.825 0.675-1.5 1.5-1.5s1.5 0.675 1.5 1.5v12.5c0 0.82 0.195 1.925 0.72 2.96 0.81 1.595 2.405 3.040 5.28 3.040h0.365c-0.805 0.915-1.365 2.21-1.365 4 0 0.55 0.45 1 1 1s1-0.45 1-1c0-3.855 3.595-3.995 4-4 0.55 0 1-0.45 1-1s-0.45-1-1-1h-5c-1.33 0-2.215-0.425-2.805-1-0.63-0.61-0.925-1.385-1.070-2h8.87c0.12 0 0.51 0.015 1.005 0.13 1.035 0.235 2.53 0.92 2.91 2.87 0.060 0.3 0.090 0.635 0.090 1 0 0.34-0.020 0.67-0.055 1-0.5 4.49-4.325 8-8.945 8z"></path>
</symbol>
<symbol id="icon-telegram" viewBox="0 0 32 32">
<path d="M16 32c8.837 0 16-7.163 16-16s-7.163-16-16-16-16 7.163-16 16 7.163 16 16 16zM13.339 19.254l7.419-6.695c0.326-0.289-0.071-0.43-0.503-0.168l-9.156 5.777-3.955-1.234c-0.854-0.262-0.86-0.848 0.192-1.27l15.412-5.943c0.704-0.32 1.383 0.169 1.115 1.246l-2.625 12.368c-0.183 0.879-0.714 1.089-1.45 0.683l-3.998-2.954-1.922 1.869c-0.223 0.217-0.4 0.4-0.8 0.4l0.272-4.079z"></path>
</symbol>
<symbol id="icon-arrow-left" viewBox="0 0 32 32">
<path d="M23.99 0.71c-0.947-0.947-2.482-0.947-3.429 0l-11.852 11.863c-1.892 1.894-1.892 4.964 0.002 6.857l11.859 11.859c0.947 0.947 2.482 0.947 3.43 0s0.947-2.482 0-3.429l-10.15-10.15c-0.947-0.947-0.947-2.482 0-3.429l10.141-10.141c0.947-0.947 0.947-2.482 0-3.429z"></path>
</symbol>
<symbol id="icon-arrow-right" viewBox="0 0 32 32">
<path d="M8.009 31.29c0.947 0.947 2.482 0.947 3.429 0l11.852-11.864c1.892-1.894 1.892-4.964-0.001-6.857l-11.859-11.859c-0.947-0.947-2.482-0.947-3.429 0s-0.947 2.482 0 3.429l10.15 10.15c0.947 0.947 0.947 2.482 0 3.429l-10.141 10.141c-0.947 0.947-0.947 2.482 0 3.429z"></path>
</symbol>
<symbol id="icon-about-3" viewBox="0 0 33 32">
<path d="M26.953 11.75h-2.125v-3.25c0-1.167-0.229-2.271-0.687-3.313s-1.083-1.938-1.875-2.688c-0.75-0.792-1.646-1.406-2.688-1.844s-2.146-0.656-3.312-0.656c-1.167 0-2.271 0.219-3.313 0.656s-1.938 1.052-2.687 1.844c-0.792 0.792-1.417 1.708-1.875 2.75s-0.687 2.146-0.687 3.313v3.187h-2.125c-0.125 0-0.24 0.052-0.344 0.156s-0.156 0.219-0.156 0.344v4.312c0 1.5 0.271 2.906 0.812 4.219s1.313 2.469 2.313 3.469c0.958 1.042 2.083 1.865 3.375 2.469s2.688 0.948 4.188 1.031c0 0-0.010 0-0.031 0s-0.031 0-0.031 0v3.188h-4.25c-0.125 0-0.24 0.052-0.344 0.156s-0.156 0.24-0.156 0.406c0 0.125 0.052 0.24 0.156 0.344s0.219 0.156 0.344 0.156h9.625c0.125 0 0.24-0.052 0.344-0.156s0.156-0.219 0.156-0.344c0-0.167-0.052-0.302-0.156-0.406s-0.219-0.156-0.344-0.156h-4.25v-3.188c0 0-0.010 0-0.031 0s-0.031 0-0.031 0c1.5-0.083 2.896-0.427 4.187-1.031s2.417-1.406 3.375-2.406c1-1.042 1.771-2.219 2.313-3.531s0.812-2.719 0.812-4.219v-4.312c0-0.125-0.052-0.24-0.156-0.344s-0.219-0.156-0.344-0.156zM8.828 8.563c0-1.042 0.188-2.021 0.563-2.938s0.917-1.708 1.625-2.375c0.667-0.667 1.448-1.198 2.344-1.594s1.865-0.594 2.906-0.594 2.010 0.198 2.906 0.594 1.677 0.927 2.344 1.594c0.708 0.667 1.25 1.448 1.625 2.344s0.563 1.865 0.563 2.906v3.25h-4.5c-0.083-0.333-0.219-0.646-0.406-0.938s-0.427-0.562-0.719-0.812c-0.25-0.208-0.542-0.375-0.875-0.5s-0.688-0.188-1.063-0.188c-0.375 0-0.729 0.063-1.063 0.188s-0.646 0.292-0.938 0.5c-0.25 0.25-0.479 0.521-0.688 0.812s-0.354 0.604-0.438 0.938h-4.188v-3.187zM8.828 12.812h4.125c0.042 0.417 0.146 0.802 0.313 1.156s0.396 0.656 0.687 0.906c0.292 0.25 0.625 0.458 1 0.625s0.771 0.25 1.188 0.25c0.417 0 0.802-0.083 1.156-0.25s0.677-0.375 0.969-0.625c0.292-0.25 0.531-0.552 0.719-0.906s0.281-0.74 0.281-1.156h4.438v3.75c0 1.042-0.188 2.010-0.563 2.906s-0.917 1.677-1.625 2.344c-0.667 0.667-1.448 1.198-2.344 1.594s-1.865 0.594-2.906 0.594c-1.042 0-2.010-0.198-2.906-0.594s-1.677-0.927-2.344-1.594c-0.708-0.667-1.25-1.458-1.625-2.375s-0.563-1.875-0.563-2.875v-3.75zM14.016 12.563c0-0.292 0.052-0.573 0.156-0.844s0.26-0.51 0.469-0.719c0.167-0.167 0.385-0.312 0.656-0.438s0.552-0.188 0.844-0.188 0.563 0.063 0.812 0.188c0.25 0.125 0.479 0.271 0.688 0.438 0.167 0.208 0.312 0.448 0.438 0.719s0.188 0.552 0.188 0.844-0.063 0.563-0.188 0.812c-0.125 0.25-0.271 0.479-0.438 0.688-0.208 0.167-0.438 0.312-0.688 0.438s-0.521 0.188-0.812 0.188-0.573-0.063-0.844-0.188c-0.271-0.125-0.49-0.271-0.656-0.438-0.208-0.208-0.365-0.438-0.469-0.688s-0.156-0.521-0.156-0.812zM26.391 16.563c0 1.375-0.26 2.677-0.781 3.906s-1.24 2.302-2.156 3.219c-0.917 0.917-1.99 1.646-3.219 2.187s-2.552 0.813-3.969 0.813c-1.417 0-2.74-0.271-3.969-0.813s-2.302-1.271-3.219-2.187c-0.917-0.917-1.635-1.99-2.156-3.219s-0.781-2.531-0.781-3.906v-3.75h1.563v3.75c0 1.167 0.229 2.271 0.687 3.312s1.083 1.938 1.875 2.688c0.75 0.792 1.646 1.406 2.687 1.844s2.146 0.656 3.313 0.656c1.167 0 2.271-0.219 3.312-0.656s1.938-1.052 2.688-1.844c0.792-0.75 1.417-1.646 1.875-2.688s0.687-2.146 0.687-3.312v-3.75h1.563v3.75z"></path>
</symbol>
<symbol id="icon-about-2" viewBox="0 0 33 32">
<path d="M24.078 31.281h-14.938c-0.146 0-0.271-0.052-0.375-0.156s-0.156-0.24-0.156-0.406v-12.25c-1.146-0.021-2.193-0.203-3.141-0.547s-1.76-0.823-2.438-1.438-1.208-1.354-1.594-2.219c-0.385-0.865-0.578-1.807-0.578-2.828s0.193-1.964 0.578-2.828c0.385-0.865 0.927-1.604 1.625-2.219s1.531-1.094 2.5-1.438 2.026-0.516 3.172-0.516c0.125 0 0.25 0.005 0.375 0.016s0.25 0.026 0.375 0.047c0.708-1.167 1.656-2.089 2.844-2.766s2.469-1.016 3.844-1.016c1.354 0 2.63 0.339 3.828 1.016s2.151 1.599 2.859 2.766c0.125-0.021 0.255-0.036 0.391-0.047s0.266-0.016 0.391-0.016c1.104 0 2.146 0.203 3.125 0.609s1.828 0.969 2.547 1.688c0.719 0.719 1.292 1.552 1.719 2.5s0.641 1.964 0.641 3.047c0 1.042-0.214 2.021-0.641 2.938s-0.979 1.724-1.656 2.422-1.432 1.266-2.266 1.703c-0.833 0.438-1.667 0.698-2.5 0.781v10.625c0 0.146-0.052 0.271-0.156 0.375s-0.229 0.156-0.375 0.156zM9.672 30.188h13.875v-10.563c0-0.146 0.052-0.271 0.156-0.375s0.229-0.156 0.375-0.156c0.729 0 1.479-0.177 2.25-0.531s1.474-0.839 2.109-1.453c0.635-0.615 1.151-1.333 1.547-2.156s0.594-1.714 0.594-2.672c0-0.938-0.182-1.818-0.547-2.641s-0.859-1.542-1.484-2.156-1.359-1.099-2.203-1.453-1.745-0.531-2.703-0.531c-0.146 0-0.312 0.010-0.5 0.031s-0.354 0.042-0.5 0.063c-0.104 0.021-0.203 0.005-0.297-0.047s-0.172-0.13-0.234-0.234c-0.604-1.083-1.438-1.938-2.5-2.563s-2.208-0.938-3.438-0.938-2.375 0.313-3.438 0.938c-1.063 0.625-1.896 1.479-2.5 2.563-0.063 0.104-0.141 0.182-0.234 0.234s-0.203 0.068-0.328 0.047l-0.094-0.031c-0.146-0.021-0.286-0.036-0.422-0.047s-0.276-0.016-0.422-0.016c-1 0-1.917 0.146-2.75 0.438s-1.547 0.698-2.141 1.219c-0.594 0.521-1.057 1.146-1.391 1.875s-0.5 1.531-0.5 2.406c0 0.875 0.167 1.677 0.5 2.406s0.797 1.359 1.391 1.891c0.594 0.531 1.307 0.943 2.141 1.234s1.75 0.438 2.75 0.438h0.406c0.146 0 0.271 0.052 0.375 0.156s0.156 0.229 0.156 0.375v12.25zM27.859 12.844c-0.146 0-0.271-0.052-0.375-0.156s-0.156-0.24-0.156-0.406c0-1.104-0.375-2.042-1.125-2.812s-1.667-1.156-2.75-1.156c-0.146 0-0.271-0.052-0.375-0.156s-0.156-0.229-0.156-0.375 0.052-0.271 0.156-0.375c0.104-0.104 0.229-0.156 0.375-0.156 1.375 0 2.542 0.49 3.5 1.469s1.438 2.167 1.438 3.562c0 0.167-0.052 0.302-0.156 0.406s-0.229 0.156-0.375 0.156zM23.547 27h-13.875c-0.146 0-0.271-0.052-0.375-0.156s-0.156-0.229-0.156-0.375c0-0.146 0.052-0.271 0.156-0.375s0.229-0.156 0.375-0.156h13.875c0.146 0 0.271 0.052 0.375 0.156s0.156 0.229 0.156 0.375c0 0.146-0.052 0.271-0.156 0.375s-0.229 0.156-0.375 0.156zM20.891 24.344c-0.146 0-0.271-0.052-0.375-0.156s-0.156-0.229-0.156-0.375v-2.156c0-0.146 0.052-0.271 0.156-0.375s0.229-0.156 0.375-0.156c0.146 0 0.271 0.052 0.375 0.156s0.156 0.229 0.156 0.375v2.156c0 0.146-0.052 0.271-0.156 0.375s-0.229 0.156-0.375 0.156z"></path>
</symbol>
<symbol id="icon-about-1" viewBox="0 0 32 32">
<path d="M3.905 28.032c-0.546 0-1.060-0.147-1.543-0.441s-0.892-0.651-1.228-1.071c-0.336-0.42-0.609-0.903-0.819-1.449s-0.315-1.071-0.315-1.575c0-0.126 0.105-1.554 0.315-4.283s0.357-4.682 0.441-5.858c0.126-0.714 0.357-1.365 0.693-1.953s0.756-1.092 1.26-1.512c0.546-0.42 1.144-0.745 1.795-0.976s1.354-0.346 2.11-0.346c0.336 0 0.661 0.042 0.976 0.126s0.64 0.21 0.976 0.378c0.294 0.126 0.598 0.304 0.913 0.535s0.598 0.493 0.85 0.787h11.339c0.252-0.294 0.535-0.556 0.85-0.787s0.619-0.409 0.913-0.535c0.336-0.168 0.661-0.294 0.976-0.378s0.64-0.126 0.976-0.126c0.756 0 1.47 0.105 2.142 0.315s1.26 0.504 1.764 0.882c0.504 0.378 0.913 0.84 1.228 1.386s0.535 1.155 0.661 1.827c0.042 0 0.063 0.011 0.063 0.031s0 0.052 0 0.095c0.084 1.218 0.231 3.276 0.441 6.173s0.315 4.388 0.315 4.472c0 0.588-0.105 1.134-0.315 1.638s-0.504 0.945-0.882 1.323c-0.336 0.378-0.745 0.682-1.228 0.913s-0.976 0.346-1.48 0.346c-0.546 0-1.029-0.052-1.449-0.157s-0.756-0.241-1.008-0.409c-0.294-0.126-0.525-0.294-0.693-0.504s-0.315-0.42-0.441-0.63c0 0 0-0.011 0-0.032s0-0.032 0-0.032l-1.512-3.465c-0.168 0.126-0.346 0.22-0.535 0.283s-0.388 0.115-0.598 0.157c-0.168 0-0.357 0.011-0.567 0.032s-0.399 0.032-0.567 0.032c-0.42 0-0.819-0.052-1.197-0.157s-0.714-0.241-1.008-0.409c-0.336-0.21-0.63-0.441-0.882-0.693s-0.441-0.525-0.567-0.819h-2.079c-0.168 0.294-0.367 0.588-0.598 0.882s-0.514 0.546-0.85 0.756c-0.294 0.252-0.64 0.441-1.039 0.567s-0.808 0.189-1.228 0.189c-0.21 0-0.42-0.032-0.63-0.095s-0.42-0.136-0.63-0.22c-0.168-0.084-0.346-0.189-0.535-0.315s-0.346-0.252-0.472-0.378l-1.512 3.654c0 0 0 0.011 0 0.032s0 0.032 0 0.032c-0.126 0.21-0.273 0.42-0.441 0.63s-0.399 0.399-0.693 0.567c-0.252 0.168-0.588 0.304-1.008 0.409s-0.903 0.157-1.449 0.157zM6.614 9.638c-0.63 0-1.207 0.094-1.732 0.283s-0.997 0.451-1.417 0.787c-0.42 0.336-0.777 0.745-1.071 1.228s-0.483 0.997-0.567 1.543c-0.126 1.932-0.283 4.042-0.472 6.331s-0.283 3.517-0.283 3.685c0 0.378 0.073 0.766 0.22 1.165s0.346 0.766 0.598 1.102c0.252 0.336 0.556 0.609 0.913 0.819s0.724 0.315 1.102 0.315c0.252 0 0.504-0.011 0.756-0.032s0.504-0.073 0.756-0.157c0.252-0.084 0.472-0.199 0.661-0.346s0.346-0.346 0.472-0.598c0 0 0-0.021 0-0.063l1.764-4.284c0-0.084 0.042-0.157 0.126-0.22s0.168-0.116 0.252-0.157c0.084 0 0.168 0.021 0.252 0.063s0.168 0.084 0.252 0.126c0.126 0.168 0.262 0.325 0.409 0.472s0.325 0.262 0.535 0.346c0.168 0.126 0.346 0.231 0.535 0.315s0.388 0.126 0.598 0.126c0.378 0 0.724-0.063 1.039-0.189s0.577-0.294 0.787-0.504c0.252-0.21 0.462-0.43 0.63-0.661s0.273-0.451 0.315-0.661c0.042-0.126 0.115-0.22 0.22-0.283s0.22-0.095 0.347-0.095h2.772c0.126 0 0.241 0.032 0.346 0.095s0.178 0.157 0.22 0.283c0.042 0.21 0.147 0.409 0.315 0.598s0.378 0.367 0.63 0.535c0.21 0.168 0.472 0.304 0.787 0.409s0.661 0.157 1.039 0.157c0.21 0 0.42-0.011 0.63-0.032s0.399-0.052 0.567-0.095c0.21-0.042 0.378-0.105 0.504-0.189s0.252-0.189 0.378-0.315c0.042-0.084 0.116-0.136 0.221-0.157s0.199-0.032 0.284-0.032c0.084 0.042 0.157 0.084 0.22 0.126s0.116 0.105 0.157 0.189l1.764 4.032c0 0 0 0.011 0 0.032s0 0.032 0 0.032c0.084 0.168 0.21 0.325 0.378 0.472s0.357 0.283 0.567 0.409c0.21 0.084 0.462 0.147 0.756 0.189s0.609 0.063 0.945 0.063c0.378 0 0.735-0.084 1.071-0.252s0.63-0.399 0.882-0.693c0.252-0.294 0.462-0.63 0.63-1.008s0.252-0.777 0.252-1.197c0-0.126-0.084-1.386-0.252-3.78s-0.336-4.619-0.504-6.677c0 0 0-0.021 0-0.063-0.084-0.546-0.262-1.039-0.535-1.48s-0.619-0.808-1.039-1.102c-0.42-0.336-0.903-0.588-1.449-0.756s-1.134-0.252-1.764-0.252c-0.252 0-0.514 0.042-0.787 0.126s-0.535 0.189-0.787 0.315c-0.294 0.126-0.567 0.294-0.819 0.504s-0.483 0.441-0.693 0.693c-0.042 0.084-0.105 0.136-0.189 0.158s-0.168 0.031-0.252 0.031h-11.716c-0.084 0-0.168-0.011-0.252-0.031s-0.147-0.073-0.189-0.158c-0.21-0.252-0.441-0.483-0.693-0.693s-0.525-0.378-0.819-0.504c-0.252-0.126-0.514-0.231-0.787-0.315s-0.535-0.126-0.787-0.126zM7.118 16.819h-3.213c-0.126 0-0.241-0.052-0.346-0.157s-0.157-0.221-0.157-0.346c0-0.168 0.053-0.304 0.157-0.409s0.22-0.158 0.346-0.158h3.213c0.168 0 0.304 0.053 0.409 0.158s0.157 0.241 0.157 0.409c0 0.126-0.052 0.241-0.157 0.346s-0.241 0.157-0.409 0.157zM5.543 18.457c-0.168 0-0.304-0.052-0.409-0.157s-0.157-0.22-0.157-0.346v-3.276c0-0.126 0.053-0.242 0.157-0.347s0.241-0.157 0.409-0.157c0.126 0 0.241 0.052 0.346 0.157s0.157 0.22 0.157 0.347v3.276c0 0.126-0.053 0.241-0.157 0.346s-0.221 0.157-0.346 0.157zM24.063 14.047c0 0.168-0.032 0.336-0.095 0.504s-0.157 0.315-0.283 0.441c-0.126 0.126-0.273 0.22-0.441 0.283s-0.336 0.095-0.504 0.095c-0.21 0-0.399-0.031-0.567-0.095s-0.294-0.157-0.378-0.283c-0.126-0.126-0.231-0.273-0.315-0.441s-0.126-0.336-0.126-0.504c0-0.21 0.042-0.399 0.126-0.567s0.189-0.294 0.315-0.378c0.084-0.126 0.21-0.231 0.378-0.315s0.357-0.126 0.567-0.126c0.168 0 0.336 0.042 0.504 0.126s0.315 0.189 0.441 0.315c0.126 0.084 0.22 0.21 0.283 0.378s0.095 0.357 0.095 0.567zM28.095 14.047c0 0.168-0.032 0.336-0.095 0.504s-0.157 0.315-0.283 0.441c-0.126 0.126-0.273 0.22-0.441 0.283s-0.336 0.095-0.504 0.095c-0.21 0-0.399-0.031-0.567-0.095s-0.294-0.157-0.378-0.283c-0.126-0.126-0.231-0.273-0.315-0.441s-0.126-0.336-0.126-0.504c0-0.21 0.042-0.399 0.126-0.567s0.189-0.294 0.315-0.378c0.084-0.126 0.21-0.231 0.378-0.315s0.357-0.126 0.567-0.126c0.168 0 0.336 0.042 0.504 0.126s0.315 0.189 0.441 0.315c0.126 0.084 0.22 0.21 0.283 0.378s0.095 0.357 0.095 0.567zM24.063 18.079c0 0.168-0.032 0.336-0.095 0.504s-0.157 0.315-0.283 0.441c-0.126 0.126-0.273 0.221-0.441 0.283s-0.336 0.095-0.504 0.095c-0.21 0-0.399-0.032-0.567-0.095s-0.294-0.157-0.378-0.283c-0.126-0.126-0.231-0.273-0.315-0.441s-0.126-0.336-0.126-0.504c0-0.21 0.042-0.399 0.126-0.567s0.189-0.294 0.315-0.378c0.084-0.126 0.21-0.231 0.378-0.315s0.357-0.126 0.567-0.126c0.168 0 0.336 0.042 0.504 0.126s0.315 0.189 0.441 0.315c0.126 0.084 0.22 0.21 0.283 0.378s0.095 0.357 0.095 0.567zM28.095 18.079c0 0.168-0.032 0.336-0.095 0.504s-0.157 0.315-0.283 0.441c-0.126 0.126-0.273 0.221-0.441 0.283s-0.336 0.095-0.504 0.095c-0.21 0-0.399-0.032-0.567-0.095s-0.294-0.157-0.378-0.283c-0.126-0.126-0.231-0.273-0.315-0.441s-0.126-0.336-0.126-0.504c0-0.21 0.042-0.399 0.126-0.567s0.189-0.294 0.315-0.378c0.084-0.126 0.21-0.231 0.378-0.315s0.357-0.126 0.567-0.126c0.168 0 0.336 0.042 0.504 0.126s0.315 0.189 0.441 0.315c0.126 0.084 0.22 0.21 0.283 0.378s0.095 0.357 0.095 0.567zM14.677 16.819h-1.071c-0.168 0-0.304-0.052-0.409-0.157s-0.158-0.221-0.158-0.346c0-0.168 0.052-0.304 0.158-0.409s0.241-0.158 0.409-0.158h1.071c0.126 0 0.241 0.053 0.346 0.158s0.158 0.241 0.158 0.409c0 0.126-0.053 0.241-0.158 0.346s-0.22 0.157-0.346 0.157zM18.961 16.819h-1.071c-0.126 0-0.241-0.052-0.346-0.157s-0.157-0.221-0.157-0.346c0-0.168 0.052-0.304 0.157-0.409s0.22-0.158 0.346-0.158h1.071c0.168 0 0.304 0.053 0.409 0.158s0.157 0.241 0.157 0.409c0 0.126-0.052 0.241-0.157 0.346s-0.241 0.157-0.409 0.157zM15.307 11.213c-0.126 0-0.241-0.053-0.346-0.158s-0.158-0.241-0.158-0.409c0-0.462 0.021-0.871 0.063-1.228s0.126-0.64 0.252-0.85c0.084-0.252 0.178-0.472 0.283-0.661s0.199-0.346 0.284-0.472c0.126-0.168 0.231-0.325 0.315-0.472s0.168-0.325 0.252-0.535c0.042-0.21 0.084-0.462 0.126-0.756s0.063-0.672 0.063-1.134c0-0.168 0.052-0.304 0.157-0.409s0.241-0.157 0.409-0.157c0.168 0 0.304 0.052 0.409 0.157s0.157 0.241 0.157 0.409c0 0.546-0.032 0.997-0.095 1.354s-0.136 0.682-0.22 0.976c-0.126 0.252-0.241 0.472-0.346 0.661s-0.22 0.367-0.346 0.535c-0.084 0.126-0.168 0.262-0.252 0.409s-0.168 0.304-0.252 0.472c-0.042 0.21-0.084 0.451-0.126 0.724s-0.063 0.598-0.063 0.976c0 0.168-0.052 0.304-0.157 0.409s-0.242 0.158-0.409 0.158z"></path>
</symbol>
<symbol id="icon-button-arrow" viewBox="0 0 32 32">
<path d="M31.72 20.491c0 1.942-0.743 4.579-2.228 7.913-0.035 0.082-0.096 0.222-0.184 0.421s-0.167 0.374-0.237 0.526c-0.070 0.152-0.146 0.281-0.228 0.386-0.14 0.199-0.304 0.298-0.491 0.298-0.175 0-0.313-0.059-0.412-0.175s-0.149-0.263-0.149-0.439c0-0.105 0.015-0.26 0.044-0.465s0.044-0.342 0.044-0.412c0.059-0.795 0.088-1.515 0.088-2.158 0-1.181-0.102-2.24-0.307-3.176s-0.488-1.746-0.851-2.43c-0.363-0.684-0.831-1.275-1.404-1.772s-1.19-0.904-1.851-1.219c-0.661-0.316-1.439-0.564-2.333-0.746s-1.795-0.307-2.702-0.377-1.933-0.105-3.079-0.105h-3.93v4.491c0 0.304-0.111 0.567-0.333 0.789s-0.485 0.333-0.79 0.333-0.567-0.111-0.79-0.333l-8.983-8.983c-0.222-0.222-0.333-0.485-0.333-0.79s0.111-0.567 0.333-0.79l8.983-8.983c0.222-0.222 0.485-0.333 0.79-0.333s0.567 0.111 0.79 0.333c0.222 0.222 0.333 0.485 0.333 0.789v4.491h3.93c8.34 0 13.457 2.357 15.351 7.070 0.62 1.567 0.93 3.515 0.93 5.842z"></path>
</symbol>
<symbol id="icon-call" viewBox="0 0 32 32">
<path d="M20.218 0.177c-4.537 1.576-8.574 5.767-11.88 12.227-2.23 4.383-3.153 7.267-3.383 10.573-0.384 5.191 0.769 7.421 4.422 8.612 2.768 0.923 3.729 0.423 5.344-2.845 1.846-3.729 1.692-4.729-1.307-7.536l-1.653-1.538 0.538-1.807c0.692-2.307 2.153-4.768 3.653-6.19l1.192-1.153 2.038 0.654c1.153 0.346 2.422 0.654 2.845 0.654 1.115 0 2.538-1.23 3.922-3.383 1.615-2.538 1.576-3.883-0.231-5.883-1.922-2.115-3.845-2.961-5.498-2.384z"></path>
</symbol>
<symbol id="icon-double-down" viewBox="0 0 32 32">
<path d="M0.406 2.682c-0.551 1.44 0.508 2.838 7.371 9.617 5.168 5.168 7.414 7.117 8.134 7.117s2.923-1.906 7.964-6.905c7.329-7.244 8.346-8.515 7.668-9.744-0.932-1.652-2.203-0.805-8.939 5.931l-6.693 6.693-6.693-6.693c-6.609-6.609-8.176-7.668-8.812-6.016z"></path>
<path d="M0.406 13.273c-0.551 1.44 0.508 2.838 7.371 9.617 5.168 5.168 7.414 7.117 8.134 7.117s2.923-1.906 7.964-6.905c7.329-7.244 8.346-8.515 7.668-9.744-0.932-1.652-2.203-0.805-8.939 5.931l-6.693 6.693-6.693-6.693c-6.609-6.609-8.176-7.668-8.812-6.016z"></path>
</symbol>
<symbol id="icon-double-right" viewBox="0 0 32 32">
<path d="M2.317 0.547c-0.975 0.932 0.127 2.416 6.358 8.689l6.697 6.697-6.697 6.697c-6.739 6.739-7.587 8.011-5.934 8.944 1.229 0.678 2.501-0.339 9.791-7.672 5.002-5.086 6.867-7.248 6.867-7.969 0-1.526-14.157-15.683-15.683-15.683-0.636 0-1.272 0.127-1.399 0.297z"></path>
<path d="M12.913 0.547c-0.975 0.932 0.127 2.416 6.358 8.689l6.697 6.697-6.697 6.697c-6.739 6.739-7.587 8.011-5.934 8.944 1.229 0.678 2.501-0.339 9.791-7.672 5.002-5.086 6.867-7.248 6.867-7.969 0-1.526-14.157-15.683-15.683-15.683-0.636 0-1.272 0.127-1.399 0.297z"></path>
</symbol>
<symbol id="icon-facebook" viewBox="0 0 32 32">
<path d="M13.198 0.632c-2.915 0.454-6.322 2.347-8.518 4.695-5.906 6.209-5.906 15.371 0 21.58 2.007 2.12 5.338 4.051 7.837 4.543l1.211 0.265v-11.433h-1.552c-2.12 0-2.991-0.53-2.991-1.893 0-1.552 0.909-2.272 2.877-2.272h1.666v-2.574c0-4.467 1.817-6.512 5.83-6.625 2.272-0.038 3.256 0.492 3.256 1.817 0 1.060-0.681 1.628-2.309 1.931-1.741 0.341-2.234 1.060-2.234 3.445v2.007h1.628c1.931 0 2.537 0.492 2.537 2.082s-0.606 2.082-2.537 2.082h-1.628v11.433l1.249-0.227c2.385-0.454 5.792-2.461 7.799-4.581 5.906-6.209 5.906-15.371 0-21.58-2.234-2.347-5.49-4.127-8.632-4.732-2.272-0.416-2.839-0.416-5.49 0.038z"></path>
</symbol>
<symbol id="icon-google-maps" viewBox="0 0 32 32">
<path d="M13.085 0.363c-4.875 1.356-8.028 5.169-8.395 10.117-0.22 3.409 0.513 5.352 4.106 10.741 1.65 2.493 3.226 5.242 3.482 6.122 0.88 2.933 1.466 3.996 2.493 4.399 2.309 0.88 3.849-0.477 4.839-4.252 0.22-0.806 1.796-3.592 3.519-6.158 3.226-4.912 4.216-7.258 4.216-10.154 0-7.075-7.441-12.683-14.26-10.814zM14.258 4.762c-0.733 0.916-1.466 1.65-1.576 1.65-0.147 0-0.623-0.403-1.1-0.916l-0.843-0.916 1.613-0.733c0.88-0.403 1.979-0.733 2.456-0.733 0.806 0 0.77 0.073-0.55 1.65zM21.663 5.495c1.833 1.796 2.016 2.676 0.88 3.702-0.733 0.66-0.77 0.66-1.136-0.037-0.66-1.136-2.016-2.236-3.226-2.603l-1.1-0.33 0.953-1.21c0.513-0.623 1.173-1.173 1.466-1.173s1.283 0.733 2.163 1.65zM10.483 8.978c0 0.147-0.66 0.99-1.503 1.87l-1.466 1.613 0.147-1.65c0.11-0.916 0.367-2.126 0.587-2.713l0.44-1.063 0.88 0.843c0.513 0.477 0.916 0.99 0.916 1.1zM18.291 10.114c1.54 1.906 0.11 5.095-2.309 5.095-2.236 0-3.849-3.116-2.456-4.839 1.21-1.54 3.556-1.686 4.765-0.257zM23.679 14.366c-0.403 0.953-1.98 3.556-3.482 5.792-1.503 2.273-3.006 4.949-3.372 6.122s-0.733 2.126-0.843 2.126c-0.183 0-1.43-3.409-1.576-4.326-0.11-0.587 9.751-12.353 9.934-11.84 0.073 0.183-0.22 1.173-0.66 2.126zM10.922 15.613c0.403 0.66 1.32 1.393 2.309 1.833l1.65 0.733-1.173 1.43c-0.623 0.806-1.173 1.466-1.246 1.466-0.037 0-0.843-1.136-1.796-2.529-1.466-2.163-1.65-2.639-1.32-3.299 0.586-1.026 0.843-0.99 1.576 0.367z"></path>
</symbol>
<symbol id="icon-instagram" viewBox="0 0 32 32">
<path d="M5.121 0.814c-1.792 0.939-3.457 2.603-4.353 4.395-0.683 1.323-0.768 2.731-0.768 10.711 0 8.108 0.085 9.345 0.811 10.796 1.024 2.091 3.841 4.481 5.761 4.865 2.048 0.469 16.899 0.427 18.99 0 2.219-0.469 5.633-3.883 6.102-6.102 0.427-2.091 0.469-16.941 0-18.99-0.384-1.92-2.987-4.993-4.865-5.761-2.134-0.896-19.928-0.853-21.678 0.085zM27.951 4.185c1.11 1.366-0.555 3.457-2.006 2.518-1.494-0.939-0.982-3.158 0.725-3.158 0.427 0 0.982 0.299 1.28 0.64zM18.734 7.471c3.713 1.109 6.7 5.804 6.102 9.559-0.853 5.249-5.974 8.791-10.839 7.511-6.828-1.835-9.132-9.9-4.182-14.808 2.518-2.56 5.42-3.286 8.919-2.262z"></path>
<path d="M12.333 12.25c-1.28 1.28-1.451 1.707-1.451 3.67s0.171 2.39 1.451 3.67c1.28 1.28 1.707 1.451 3.67 1.451s2.39-0.171 3.67-1.451c1.28-1.28 1.451-1.707 1.451-3.67s-0.171-2.39-1.451-3.67c-1.28-1.28-1.707-1.451-3.67-1.451s-2.39 0.171-3.67 1.451z"></path>
</symbol>
<symbol id="icon-viber" viewBox="0 0 32 32">
<path d="M10.928 0.459c-2.791 0.628-4.849 1.605-6.314 3.035-1.57 1.535-2.128 2.756-2.686 5.825-1.465 8.302 0.628 14.895 5.267 16.429l1.221 0.419v2.93c0 3.767 0.384 3.802 3.663 0.488 2.372-2.372 2.477-2.442 4.186-2.442 2.895 0 7.569-0.698 9.069-1.36 1.849-0.802 3.418-2.651 4.395-5.163 0.698-1.744 0.802-2.686 0.802-6.732 0.035-7.255-1.291-10.325-5.302-12.209-3.418-1.605-9.941-2.163-14.302-1.221zM20.73 5.97c1.849 1.081 3.349 3.349 3.628 5.442 0.244 1.744-0.105 3.174-0.767 3.174-0.384 0-0.523-0.419-0.523-1.674 0-1.779-0.907-4.081-1.953-5.023-1.116-0.977-3.139-1.674-4.849-1.674-1.116 0-1.57-0.14-1.57-0.488 0-0.733 0.628-0.907 2.651-0.802 1.151 0.070 2.337 0.453 3.384 1.046zM11.731 7.679c1.639 1.953 1.849 2.895 0.907 3.907-0.384 0.419-0.733 1.151-0.733 1.639 0 1.744 3.174 4.849 4.953 4.849 0.453 0 1.081-0.314 1.43-0.698 0.314-0.384 0.872-0.698 1.256-0.698 0.733 0 4.221 2.616 4.221 3.174 0 1.605-2.302 3.384-3.907 3-1.221-0.314-4.953-2.686-6.907-4.36-2.721-2.337-5.93-7.535-5.93-9.558 0-0.872 1.849-2.721 2.721-2.721 0.419 0 1.256 0.663 1.988 1.465zM19.858 7.854c1.605 1.221 2.302 2.442 2.302 4.186 0.035 1.256-0.105 1.674-0.488 1.674-0.314 0-0.593-0.488-0.733-1.326-0.105-0.733-0.419-1.709-0.663-2.163-0.523-0.977-2.302-1.918-3.593-1.918-0.977 0-1.465-0.488-1.081-1.081 0.349-0.593 3.209-0.174 4.256 0.628zM18.498 9.528c1.081 0.523 1.988 2.267 1.639 3.139-0.314 0.872-0.872 0.593-1.395-0.663-0.314-0.767-0.837-1.291-1.57-1.535-1.046-0.384-1.326-0.767-0.837-1.221 0.349-0.384 1.116-0.279 2.163 0.279z"></path>
</symbol>
<symbol id="icon-menu" viewBox="0 0 32 32">
<path d="M0 3.429h32v6.857h-32zM0 12.571h32v6.857h-32zM0 21.714h32v6.857h-32z"></path>
</symbol>
<symbol id="icon-cancel-circle" viewBox="0 0 32 32">
<path d="M16 0c-8.837 0-16 7.163-16 16s7.163 16 16 16 16-7.163 16-16-7.163-16-16-16zM16 29c-7.18 0-13-5.82-13-13s5.82-13 13-13 13 5.82 13 13-5.82 13-13 13z"></path>
<path d="M21 8l-5 5-5-5-3 3 5 5-5 5 3 3 5-5 5 5 3-3-5-5 5-5z"></path>
</symbol>
<symbol id="icon-cross" viewBox="0 0 32 32">
<path d="M31.708 25.708c-0-0-0-0-0-0l-9.708-9.708 9.708-9.708c0-0 0-0 0-0 0.105-0.105 0.18-0.227 0.229-0.357 0.133-0.356 0.057-0.771-0.229-1.057l-4.586-4.586c-0.286-0.286-0.702-0.361-1.057-0.229-0.13 0.048-0.252 0.124-0.357 0.228 0 0-0 0-0 0l-9.708 9.708-9.708-9.708c-0-0-0-0-0-0-0.105-0.104-0.227-0.18-0.357-0.228-0.356-0.133-0.771-0.057-1.057 0.229l-4.586 4.586c-0.286 0.286-0.361 0.702-0.229 1.057 0.049 0.13 0.124 0.252 0.229 0.357 0 0 0 0 0 0l9.708 9.708-9.708 9.708c-0 0-0 0-0 0-0.104 0.105-0.18 0.227-0.229 0.357-0.133 0.355-0.057 0.771 0.229 1.057l4.586 4.586c0.286 0.286 0.702 0.361 1.057 0.229 0.13-0.049 0.252-0.124 0.357-0.229 0-0 0-0 0-0l9.708-9.708 9.708 9.708c0 0 0 0 0 0 0.105 0.105 0.227 0.18 0.357 0.229 0.356 0.133 0.771 0.057 1.057-0.229l4.586-4.586c0.286-0.286 0.362-0.702 0.229-1.057-0.049-0.13-0.124-0.252-0.229-0.357z"></path>
</symbol>
<symbol id="icon-checkmark" viewBox="0 0 32 32">
<path d="M27 3.5l-15 15-7-7-5 5 12 12 20-20z"></path>
</symbol>
</defs>
</svg>
